<svg xmlns="http://www.w3.org/2000/svg" viewBox="0 0 320 310" fill="none" stroke="#c0392b" stroke-width="4" stroke-linejoin="round" stroke-linecap="round">
  <path d="
    M 105 5
    L 105 8 L 108 8 L 108 22 L 105 22 L 105 58
    L 98 58 L 98 62 L 88 62 L 88 72
    L 78 72 L 78 78
    L 52 78 L 52 82
    L 38 82 L 38 92
    L 18 92 L 18 100
    L 8 100 L 8 108
    L 12 112 L 20 120 L 28 132
    L 32 142 L 30 155 L 28 168
    L 35 180 L 42 190
    L 52 202 L 60 210
    L 70 220 L 78 232
    L 88 248 L 95 258
    L 105 270 L 115 280
    L 128 288 L 140 295
    L 155 300 L 168 305
    L 180 302 L 192 295
    L 202 285 L 210 275
    L 218 262 L 225 250
    L 232 238 L 238 225
    L 245 210 L 252 198
    L 260 185 L 268 172
    L 275 158 L 280 145
    L 285 130 L 290 118
    L 292 105 L 292 92
    L 288 80 L 280 70
    L 268 62 L 255 58
    L 240 55 L 225 52
    L 210 48 L 195 45
    L 180 42 L 168 38
    L 158 32 L 148 25
    L 138 18 L 128 12
    L 118 8 L 105 5 Z
  "/>
</svg>
